<?xml version="1.0" encoding="UTF-8"?><svg id="Laag_2" xmlns="http://www.w3.org/2000/svg" viewBox="0 0 1920 333.33"><defs><style>.cls-1{fill:#b2c92b;}</style></defs><g id="Laag_1-2"><path class="cls-1" d="M960,333.33h960V11.55c-.39-.37-.79-.74-1.19-1.1-1.28-1.16-2.57-2.33-3.25-3.64-1.61-3.09-9.45-3.16-14.63-.39-5.14,2.75-7.9,6.19-10.71,9.69-1.29,1.6-2.59,3.22-4.13,4.79-4.26-1.14-6.31-3.14-8.36-5.14-.45-.43-.89-.87-1.35-1.29-.29-.27-.53-.55-.77-.84-.3-.36-.59-.73-1.01-1.05-1.17-.91-2.16-2.02-3.16-3.14-2.72-3.04-5.5-6.16-12.25-5.61-10.38.84-22.37,2.38-27.27,8.75-.57.75-1.28,1.48-1.98,2.2-1.46,1.5-2.92,3-3.26,4.73-.49,2.49-2.64,1.9-5.3.84-4.23-1.69-6.39-4.35-7.73-6.61l-.17-.28c-1.6-2.7-3.59-6.07-7.29-6.53-7.03-.86-13.35,1.54-18.36,4.45-1.77,1.02-3.03,2.21-4.31,3.4-1.05.98-2.11,1.97-3.45,2.88-3.12-1.23-4.22-2.9-5.3-4.54-.58-.88-1.15-1.75-2.03-2.54-6.9-6.21-10.77-7.17-25.31-2.33-4.07,1.35-6.53,3.45-9.27,5.79-.67.57-1.36,1.16-2.09,1.75-1.25-1.82-3.33-3.15-5.38-4.45-1.76-1.12-3.49-2.23-4.63-3.6-2.94-3.57-8.71-3.89-14.43-1.43-7.89,3.4-11.29,8.16-14.85,13.12-.36.5-.71.99-1.07,1.49-3.29-1.68-5.37-3.57-6.56-5.61-2.32-3.98-7.05-6.77-15.03-6.58-6.75.15-13.5,1.27-17.93,4.51-2.95,2.16-4.53,4.62-6.18,7.17-.09.15-.19.29-.28.44-5.83-1.68-8.9-4.39-11.96-7.08-1.83-1.61-3.65-3.21-6.05-4.58-7.43-4.25-14.95-4.7-21.75-.13-3.52,2.36-5.76,5.09-8.12,7.95-1.15,1.4-2.33,2.84-3.7,4.28-1.81-1.39-3.53-2.75-5.21-4.09-3.7-2.94-7.22-5.74-11.19-8.36-6.26-4.13-16.52-3.65-22.06.87-2.68,2.19-5.05,4.48-7.42,6.77-1.06,1.02-2.11,2.04-3.2,3.05-3.94-.83-5.6-2.53-6.19-4.31-1.03-3.08-4.92-5.21-8.67-7.27-.84-.46-1.68-.92-2.48-1.39-5.66-3.31-18.02-1.58-21.69,2.81-2.28,2.73-3.88,5.63-5.47,8.51-.25.46-.51.92-.76,1.37-.12.21-.21.44-.3.67-.3.78-.6,1.55-2.11,1.7-.85.09-2.1-.58-3.14-1.14-.19-.1-.37-.2-.55-.29-4.1-2.1-6.71-4.69-9.32-7.29-1.77-1.76-3.55-3.52-5.79-5.14-.33-.24-.66-.48-.98-.72-2.58-1.93-5.07-3.79-10.34-2.76-2.04.4-4.32.62-6.62.83-6.58.62-13.23,1.25-14.27,6.22-.27,1.3-1.12,2.53-1.97,3.75-1.24,1.79-2.48,3.58-1.92,5.6-3.42.3-4.51-.93-5.43-1.98l-.06-.07c-3.26-3.7-6.8-7.32-10.98-10.77-.54-.45-1.04-.95-1.54-1.45-1.86-1.86-3.78-3.8-8.27-3.43-6.62.54-11.94,3.13-13.41,6.56-.44,1.02-1.02,2.04-1.6,3.06-1.8,3.18-3.7,6.52-2.11,10.93-6.35-2.71-10.54-5.6-14.49-8.32-1.95-1.35-3.84-2.65-5.9-3.87-.7-.41-1.18-.92-1.67-1.43-.49-.51-.98-1.02-1.68-1.43-.68-.41-1.31-.9-1.95-1.4-1.88-1.47-3.83-3-7.47-2.51-5.49.73-10.7,2.07-12.74,5.64-.6,1.06-.84,2.16-1.08,3.26-.42,1.95-.84,3.91-3.29,5.65-4.64-1.18-5.61-3.44-6.54-5.64-.27-.63-.53-1.25-.88-1.84-1.32-2.25-2.84-4.18-6.52-5.62-5.77-2.26-10.78-1.7-13.84,1.74l-.22.25c-3.8,4.29-7.62,8.59-9.35,13.53-7.81-2.49-11.47-6.27-15.07-9.97-.74-.76-1.47-1.51-2.23-2.25-.25-.24-.5-.49-.74-.73-2.4-2.35-4.72-4.63-9.33-6.09-4.21-1.33-6.66-1.19-9.87,1.25-4.26,3.24-5.47,6.89-6.67,10.52-.73,2.21-1.47,4.42-2.89,6.54-.16.23-.34.46-.58.75-.13.16-.28.35-.46.57-3.81-1.33-5.31-3.27-6.77-5.17-.7-.91-1.39-1.8-2.32-2.62-1.38-1.21-2.53-2.49-3.67-3.76-2.03-2.25-4.06-4.52-7.44-6.47-4.45-2.58-7.53-1.92-11.48-.21-5.51,2.39-8.06,5.67-10.61,8.95-.55.71-1.1,1.42-1.69,2.12-.28.33-.27.76-.26,1.19.02.89.03,1.78-2.48,1.73-2.01-.04-2.74-1.02-3.45-1.97-.24-.32-.47-.64-.76-.91-4.82-4.73-10.05-9.13-19.16-12.2-3.21-1.08-4.33-.6-5.83.26-6.28,3.6-11.07,7.52-8.4,12.97-1.73-1.75-3.76-3.4-5.79-5.05-2.26-1.84-4.51-3.68-6.32-5.63-2.44-2.63-5.02-2.89-9.45-1.93-6.48,1.41-9.87,4-11.5,7.46-1.04,2.21-2.25,4.39-3.54,6.72-.58,1.05-1.18,2.13-1.79,3.25-3.5-2.63-6.26-5.3-8.96-7.9-2.75-2.65-5.42-5.24-8.73-7.64-6.53-4.74-13.62-4.97-18.46.63-.08.09-.16.19-.24.28-2.25,2.59-4.48,5.17-4,8.95-2.82-1.57-4.38-3.28-5.85-4.9-1.3-1.44-2.54-2.8-4.54-3.93-.69-.39-1.31-.82-1.92-1.24-2.13-1.47-4.17-2.87-8.74-2.45-5.93.54-9.06,2.51-11.38,5.27-1.2,1.43-1.44,2.96-1.68,4.53-.28,1.84-.58,3.73-2.45,5.53-7.52-3.21-14.03-6.39-17.83-10.84-1.76-2.06-4.92-3.74-9.22-3.51-4.51.24-7.47,2.04-8.7,4.43-1.24,2.39-2.49,4.78-3.81,7.31-.59,1.13-1.2,2.29-1.82,3.48-7.01-4.09-10.61-8.83-13.78-13.65-.12-.19-.24-.37-.36-.56-1.46-2.28-2.84-4.43-8.55-4.64-6.4-.23-9.03,2.26-11.02,4.68-1.79,2.17-3.17,4.44-4.7,6.96-.7,1.15-1.44,2.36-2.26,3.64-.74-1.12-1.4-2.17-2.04-3.18-1.05-1.66-2.05-3.42-3.29-4.95-1.04-1.28-1.75-2.94-2.93-4.09-1.11-1.08-2.59-1.29-4.08-1.28-3.81.03-8.3.56-10.66,3.92-1.1,1.57-1.6,3.49-1.9,5.39-.36,2.33-.68,4.68-1.04,7.01.08-.52-.75-1.64-.99-2.08-.47-.84-.95-1.67-1.5-2.46-1.15-1.68-2.12-3.47-3.33-5.11-1.37-1.84-3.13-3.5-5.34-4.14-3.13-.9-6.11.62-8.8,2.07-5.14,2.75-7.01,6.19-9.82,9.69-1.29,1.6-2.59,3.22-4.13,4.79-4.26-1.14-6.31-3.14-8.36-5.14-.45-.43-.89-.87-1.35-1.29-.29-.27-.53-.55-.77-.84-.3-.36-.59-.73-1.01-1.05-1.17-.91-2.16-2.02-3.16-3.14-2.72-3.04-5.5-6.16-12.25-5.61-10.38.84-22.37,2.38-27.27,8.75-.57.75-1.28,1.48-1.98,2.2-1.46,1.5-2.92,3-3.26,4.73-.49,2.49-2.64,1.9-5.3.84-4.23-1.69-6.39-4.35-7.73-6.61l-.17-.28c-1.6-2.7-3.59-6.07-7.29-6.53-7.03-.86-13.35,1.54-18.36,4.45-1.77,1.02-3.03,2.21-4.31,3.4-1.05.98-2.11,1.97-3.45,2.88-3.12-1.23-4.22-2.9-5.3-4.54-.58-.88-1.15-1.75-2.03-2.54-6.9-6.21-10.77-7.17-25.31-2.33-4.07,1.35-6.53,3.45-9.27,5.79-.67.57-1.36,1.16-2.09,1.75-1.25-1.82-3.33-3.15-5.38-4.45-1.76-1.12-3.49-2.23-4.63-3.6-2.94-3.57-8.71-3.89-14.43-1.43-7.89,3.4-11.29,8.16-14.85,13.12-.36.5-.71.99-1.07,1.49-3.29-1.68-5.37-3.57-6.56-5.61-2.32-3.98-7.05-6.77-15.03-6.58-6.75.15-13.5,1.27-17.93,4.51-2.95,2.16-4.53,4.62-6.18,7.17-.09.15-.19.29-.28.44-5.83-1.68-8.9-4.39-11.96-7.08-1.83-1.61-3.65-3.21-6.05-4.58-7.43-4.25-14.95-4.7-21.75-.13-3.52,2.36-5.76,5.09-8.12,7.95-1.15,1.4-2.33,2.84-3.7,4.28-1.81-1.39-3.53-2.75-5.21-4.09-3.7-2.94-7.22-5.74-11.19-8.36-6.26-4.13-16.52-3.65-22.06.87-2.68,2.19-5.05,4.48-7.42,6.77-1.06,1.02-2.11,2.04-3.2,3.05-3.94-.83-5.6-2.53-6.19-4.31-1.03-3.08-4.92-5.21-8.67-7.27-.84-.46-1.68-.92-2.48-1.39-5.66-3.31-18.02-1.58-21.69,2.81-2.28,2.73-3.88,5.63-5.47,8.51-.25.46-.51.92-.76,1.37-.12.21-.21.44-.3.67-.3.78-.6,1.55-2.11,1.7-.85.09-2.1-.58-3.14-1.14-.19-.1-.37-.2-.55-.29-4.1-2.1-6.71-4.69-9.32-7.29-1.77-1.76-3.55-3.52-5.79-5.14-.33-.24-.66-.48-.98-.72-2.58-1.93-5.07-3.79-10.34-2.76-2.04.4-4.32.62-6.62.83-6.58.62-13.23,1.25-14.27,6.22-.27,1.3-1.12,2.53-1.97,3.75-1.24,1.79-2.48,3.58-1.92,5.6-3.42.3-4.51-.93-5.43-1.98l-.06-.07c-3.26-3.7-6.8-7.32-10.98-10.77-.54-.45-1.04-.95-1.54-1.45-1.86-1.86-3.78-3.8-8.27-3.43-6.62.54-11.94,3.13-13.41,6.56-.44,1.02-1.02,2.04-1.6,3.06-1.8,3.18-3.7,6.52-2.11,10.93-6.35-2.71-10.54-5.6-14.49-8.32-1.95-1.35-3.84-2.65-5.9-3.87-.7-.41-1.18-.92-1.67-1.43-.49-.51-.98-1.02-1.68-1.43-.68-.41-1.31-.9-1.95-1.4-1.88-1.47-3.83-3-7.47-2.51-5.49.73-10.7,2.07-12.74,5.64-.6,1.06-.84,2.16-1.08,3.26-.42,1.95-.84,3.91-3.29,5.65-4.64-1.18-5.61-3.44-6.54-5.64-.27-.63-.53-1.25-.88-1.84-1.32-2.25-2.84-4.18-6.52-5.62-5.77-2.26-10.78-1.7-13.84,1.74l-.22.25c-3.8,4.29-7.62,8.59-9.35,13.53-7.81-2.49-11.47-6.27-15.07-9.97-.74-.76-1.47-1.51-2.23-2.25-.25-.24-.5-.49-.74-.73-2.4-2.35-4.72-4.63-9.33-6.09-4.21-1.33-6.66-1.19-9.87,1.25-4.26,3.24-5.47,6.89-6.67,10.52-.73,2.21-1.47,4.42-2.89,6.54-.16.23-.34.46-.58.75-.13.16-.28.35-.46.57-3.81-1.33-5.31-3.27-6.77-5.17-.7-.91-1.39-1.8-2.32-2.62-1.38-1.21-2.53-2.49-3.67-3.76-2.03-2.25-4.06-4.52-7.44-6.47-4.45-2.58-7.53-1.92-11.48-.21-5.51,2.39-8.06,5.67-10.61,8.95-.55.71-1.1,1.42-1.69,2.12-.28.33-.27.76-.26,1.19.02.89.03,1.78-2.48,1.73-2.01-.04-2.74-1.02-3.45-1.97-.24-.32-.47-.64-.76-.91-4.82-4.73-10.05-9.13-19.16-12.2-3.21-1.08-4.33-.6-5.83.26-6.28,3.6-11.07,7.52-8.4,12.97-1.73-1.75-3.76-3.4-5.79-5.05-2.26-1.84-4.51-3.68-6.32-5.63-2.44-2.63-5.02-2.89-9.45-1.93-6.48,1.41-9.87,4-11.5,7.46-1.04,2.21-2.25,4.39-3.54,6.72-.58,1.05-1.18,2.13-1.79,3.25-3.5-2.63-6.26-5.3-8.96-7.9-2.75-2.65-5.42-5.24-8.73-7.64-6.53-4.74-13.62-4.97-18.46.63-.08.09-.16.19-.24.28-2.25,2.59-4.48,5.17-4,8.95-2.82-1.57-4.38-3.28-5.85-4.9-1.3-1.44-2.54-2.8-4.54-3.93-.69-.39-1.31-.82-1.92-1.24-2.13-1.47-4.17-2.87-8.74-2.45-5.93.54-9.06,2.51-11.38,5.27-1.2,1.43-1.44,2.96-1.68,4.53-.28,1.84-.58,3.73-2.45,5.53-7.52-3.21-14.03-6.39-17.83-10.84-1.76-2.06-4.92-3.74-9.22-3.51-4.51.24-7.47,2.04-8.7,4.43-1.24,2.39-2.49,4.78-3.81,7.31-.59,1.13-1.2,2.29-1.82,3.48-7.01-4.09-10.61-8.83-13.78-13.65-.12-.19-.24-.37-.36-.56C51.01,2.38,49.62.22,43.92.01c-6.41-.23-9.03,2.26-11.02,4.68-1.79,2.17-3.17,4.44-4.7,6.96-.7,1.15-1.44,2.36-2.26,3.64-.74-1.12-1.4-2.17-2.04-3.18-1.44-2.28-2.72-4.32-4.35-6.29-.3-.36-.52-.77-.75-1.19-.76-1.39-1.57-2.87-5.19-2.84-4.41.04-8.77,1.36-10.29,3.33-1.31,1.7-2.41,3.43-3.31,5.18,0,0,0,17.97,0,17.97v305.05h960"/></g></svg>